<svg width="190" height="27" viewBox="0 0 190 27" fill="none" xmlns="http://www.w3.org/2000/svg">
<rect width="190" height="27" fill="white"/>
<path d="M36.4223 8.70386H31.6239C31.2956 8.70386 31.0163 8.94083 30.9651 9.26283L29.0244 21.4856C28.9859 21.7267 29.1739 21.9442 29.4202 21.9442H31.7109C32.0393 21.9442 32.3185 21.7072 32.3697 21.3845L32.8931 18.0879C32.9437 17.7652 33.2236 17.5282 33.5513 17.5282H35.0702C38.231 17.5282 40.0552 16.0088 40.5316 12.9979C40.7463 11.6806 40.5407 10.6456 39.9198 9.92077C39.2378 9.12483 38.0282 8.70386 36.4223 8.70386ZM36.9758 13.1679C36.7134 14.8783 35.3979 14.8783 34.1259 14.8783H33.4018L33.9098 11.6841C33.9399 11.491 34.1083 11.3489 34.3048 11.3489H34.6366C35.5031 11.3489 36.3205 11.3489 36.7429 11.8395C36.9948 12.1323 37.0719 12.5672 36.9758 13.1679Z" fill="#253B80"/>
<path d="M50.7653 13.1129H48.4675C48.2718 13.1129 48.1027 13.255 48.0725 13.4481L47.9708 14.0865L47.8101 13.8551C47.3127 13.138 46.2034 12.8982 45.0963 12.8982C42.5571 12.8982 40.3884 14.8086 39.9661 17.4884C39.7465 18.8252 40.0587 20.1035 40.822 20.9949C41.5223 21.8145 42.5242 22.156 43.7162 22.156C45.7621 22.156 46.8966 20.8492 46.8966 20.8492L46.7942 21.4835C46.7556 21.726 46.9436 21.9435 47.1885 21.9435H49.2582C49.5873 21.9435 49.8651 21.7065 49.9171 21.3838L51.1589 13.5715C51.1982 13.331 51.0109 13.1129 50.7653 13.1129ZM47.5624 17.5553C47.3407 18.8594 46.2988 19.7348 44.97 19.7348C44.3027 19.7348 43.7695 19.5222 43.4271 19.1193C43.0876 18.7193 42.9585 18.1499 43.0665 17.5156C43.2735 16.2227 44.3329 15.3188 45.6414 15.3188C46.2939 15.3188 46.8243 15.5341 47.1737 15.9405C47.5239 16.351 47.6628 16.9239 47.5624 17.5553Z" fill="#253B80"/>
<path d="M63.0029 13.1129H60.6939C60.4736 13.1129 60.2666 13.2216 60.1417 13.4035L56.9571 18.0634L55.6072 13.5854C55.5223 13.3052 55.262 13.1129 54.9673 13.1129H52.6983C52.4226 13.1129 52.231 13.3805 52.3187 13.6384L54.8621 21.0527L52.471 24.4059C52.2829 24.67 52.4724 25.0331 52.7972 25.0331H55.1034C55.3223 25.0331 55.5272 24.9272 55.6514 24.7488L63.3312 13.7366C63.5151 13.4732 63.3263 13.1129 63.0029 13.1129Z" fill="#253B80"/>
<path d="M70.6477 8.70386H65.8487C65.521 8.70386 65.2418 8.94083 65.1906 9.26283L63.2499 21.4856C63.2113 21.7267 63.3994 21.9442 63.6442 21.9442H66.1069C66.3356 21.9442 66.5314 21.7783 66.5671 21.5525L67.1179 18.0879C67.1684 17.7652 67.4484 17.5282 67.776 17.5282H69.2943C72.4558 17.5282 74.2793 16.0088 74.7564 12.9979C74.9718 11.6806 74.7648 10.6456 74.1439 9.92077C73.4626 9.12483 72.2537 8.70386 70.6477 8.70386ZM71.2013 13.1679C70.9396 14.8783 69.6241 14.8783 68.3513 14.8783H67.628L68.1366 11.6841C68.1668 11.491 68.3338 11.3489 68.531 11.3489H68.8628C69.7286 11.3489 70.5467 11.3489 70.9691 11.8395C71.2209 12.1323 71.2974 12.5672 71.2013 13.1679Z" fill="#179BD7"/>
<path d="M84.99 13.1129H82.6936C82.4964 13.1129 82.3287 13.255 82.2993 13.4481L82.1975 14.0865L82.0362 13.8551C81.5387 13.138 80.4302 12.8982 79.323 12.8982C76.7839 12.8982 74.6159 14.8086 74.1935 17.4884C73.9746 18.8252 74.2855 20.1035 75.0488 20.9949C75.7504 21.8145 76.7509 22.156 77.943 22.156C79.9889 22.156 81.1234 20.8492 81.1234 20.8492L81.0209 21.4835C80.9824 21.726 81.1704 21.9435 81.4167 21.9435H83.4857C83.8134 21.9435 84.0926 21.7065 84.1438 21.3838L85.3864 13.5715C85.4243 13.331 85.2362 13.1129 84.99 13.1129ZM81.7871 17.5553C81.5668 18.8594 80.5235 19.7348 79.1946 19.7348C78.5288 19.7348 77.9942 19.5222 77.6518 19.1193C77.3122 18.7193 77.1845 18.1499 77.2912 17.5156C77.4995 16.2227 78.5576 15.3188 79.8661 15.3188C80.5186 15.3188 81.049 15.5341 81.3984 15.9405C81.7499 16.351 81.8888 16.9239 81.7871 17.5553Z" fill="#179BD7"/>
<path d="M87.6988 9.03913L85.7294 21.4856C85.6908 21.7268 85.8788 21.9442 86.1237 21.9442H88.1037C88.4327 21.9442 88.712 21.7072 88.7625 21.3846L90.7045 9.16249C90.7431 8.92134 90.5551 8.70319 90.3102 8.70319H88.0931C87.8974 8.70388 87.729 8.84606 87.6988 9.03913Z" fill="#179BD7"/>
<path d="M9.09789 24.3194L9.46484 22.0041L8.64746 21.9853H4.74438L7.45682 4.90047C7.46524 4.8489 7.4926 4.80081 7.53259 4.76665C7.57259 4.7325 7.6238 4.71368 7.67713 4.71368H14.2583C16.4431 4.71368 17.9508 5.16532 18.7381 6.05674C19.1071 6.47493 19.3421 6.91193 19.4558 7.39284C19.5751 7.89744 19.5772 8.50032 19.4607 9.23562L19.4523 9.28929V9.76044L19.8213 9.96814C20.1322 10.1319 20.3791 10.3194 20.5686 10.5341C20.8843 10.8916 21.0885 11.346 21.1748 11.8848C21.2639 12.4389 21.2344 13.0982 21.0885 13.8447C20.9201 14.7034 20.6478 15.4512 20.2802 16.0631C19.942 16.627 19.5112 17.0947 18.9998 17.4571C18.5114 17.8014 17.9312 18.0627 17.2752 18.23C16.6395 18.3945 15.9148 18.4774 15.1198 18.4774H14.6077C14.2414 18.4774 13.8857 18.6085 13.6065 18.8434C13.3265 19.0831 13.1413 19.4107 13.0845 19.7689L13.0459 19.9773L12.3976 24.0581L12.3681 24.2079C12.3604 24.2553 12.3471 24.279 12.3274 24.295C12.3099 24.3097 12.2846 24.3194 12.2601 24.3194H9.09789Z" fill="#253B80"/>
<path d="M20.1708 9.34363C20.1511 9.46839 20.1287 9.59593 20.1034 9.72696C19.2355 14.1534 16.2663 15.6826 12.4741 15.6826H10.5432C10.0795 15.6826 9.68866 16.0171 9.61639 16.4715L8.62782 22.6997L8.34788 24.4651C8.30087 24.7634 8.5324 25.0324 8.8355 25.0324H12.2601C12.6656 25.0324 13.0101 24.7397 13.0739 24.3424L13.1076 24.1696L13.7524 20.1048L13.7938 19.8818C13.8569 19.4831 14.2021 19.1904 14.6077 19.1904H15.1198C18.4378 19.1904 21.0351 17.8522 21.7943 13.9799C22.1114 12.3622 21.9472 11.0115 21.1081 10.0615C20.8541 9.77505 20.5391 9.53739 20.1708 9.34363Z" fill="#179BD7"/>
<path d="M19.2628 8.98402C19.1302 8.94568 18.9934 8.91083 18.8531 8.87947C18.712 8.8488 18.5675 8.82162 18.4188 8.79792C17.8982 8.71429 17.3278 8.67456 16.7167 8.67456H11.5584C11.4314 8.67456 11.3107 8.70314 11.2027 8.75471C10.9648 8.86832 10.788 9.09205 10.7452 9.36595L9.64791 16.2701L9.61633 16.4716C9.6886 16.0171 10.0794 15.6826 10.5432 15.6826H12.474C16.2662 15.6826 19.2354 14.1527 20.1033 9.72699C20.1293 9.59595 20.1511 9.46841 20.1707 9.34365C19.9511 9.22795 19.7132 9.12898 19.4572 9.04465C19.394 9.02374 19.3288 9.00353 19.2628 8.98402Z" fill="#222D65"/>
<path d="M10.7453 9.36597C10.7881 9.09206 10.9649 8.86833 11.2028 8.75542C11.3115 8.70385 11.4315 8.67527 11.5585 8.67527H16.7167C17.3278 8.67527 17.8982 8.715 18.4188 8.79864C18.5676 8.82233 18.7121 8.84952 18.8531 8.88018C18.9935 8.91155 19.1303 8.94639 19.2629 8.98473C19.3288 9.00424 19.3941 9.02445 19.4579 9.04467C19.714 9.129 19.9519 9.22867 20.1715 9.34367C20.4297 7.70788 20.1694 6.59412 19.279 5.58561C18.2975 4.47533 16.5259 4 14.259 4H7.67785C7.21478 4 6.81977 4.33455 6.74821 4.78967L4.00701 22.0501C3.95298 22.3916 4.21819 22.6997 4.56479 22.6997H8.62783L9.64798 16.2702L10.7453 9.36597Z" fill="#253B80"/>
<g clip-path="url(#clip0_209_16)">
<path d="M137.1 24.7115H130.538L134.642 5.35095H141.204L137.1 24.7115Z" fill="#00579F"/>
<path d="M160.886 5.82425C159.592 5.43252 157.539 5 155.001 5C148.521 5 143.958 7.63619 143.93 11.4051C143.876 14.1859 147.197 15.7304 149.681 16.6575C152.219 17.605 153.082 18.2234 153.082 19.0679C153.057 20.3649 151.031 20.9628 149.142 20.9628C146.522 20.9628 145.119 20.6545 142.985 19.9329L142.121 19.6236L141.203 23.9696C142.742 24.5045 145.578 24.9792 148.521 25C155.406 25 159.888 22.4046 159.941 18.3882C159.968 16.1842 158.214 14.4955 154.434 13.1155C152.139 12.2297 150.733 11.6324 150.733 10.726C150.76 9.902 151.922 9.05804 154.513 9.05804C156.646 9.0167 158.213 9.40788 159.4 9.79934L159.994 10.0049L160.886 5.82425V5.82425Z" fill="#00579F"/>
<path d="M169.607 17.8527C170.148 16.7405 172.227 12.4358 172.227 12.4358C172.2 12.4772 172.766 11.303 173.09 10.5823L173.549 12.2505C173.549 12.2505 174.791 16.8848 175.061 17.8527C174.036 17.8527 170.903 17.8527 169.607 17.8527ZM177.707 5.35095H172.631C171.066 5.35095 169.877 5.7008 169.202 6.9573L159.455 24.7112H166.34C166.34 24.7112 167.474 22.3217 167.717 21.807C168.473 21.807 175.17 21.807 176.142 21.807C176.33 22.4867 176.925 24.7112 176.925 24.7112H183L177.707 5.35095V5.35095Z" fill="#00579F"/>
<path d="M125.058 5.35095L118.632 18.553L117.93 15.8755C116.742 12.7859 113.016 9.42924 108.858 7.76021L114.744 24.6909H121.683L131.996 5.35095H125.058V5.35095Z" fill="#00579F"/>
<path d="M112.665 5.35095H102.108L102 5.74214C110.235 7.34876 115.689 11.2215 117.93 15.8763L115.635 6.97838C115.257 5.74186 114.096 5.39174 112.665 5.35095Z" fill="#FAA61A"/>
</g>
<defs>
<clipPath id="clip0_209_16">
<rect width="81" height="20" fill="white" transform="translate(102 5)"/>
</clipPath>
</defs>
</svg>
