<svg width="199" height="54" viewBox="0 0 199 54" fill="none" xmlns="http://www.w3.org/2000/svg">
<g clip-path="url(#clip0_121_51931)">
<path fill-rule="evenodd" clip-rule="evenodd" d="M17.3645 12.7107H30.9628C38.2638 12.7107 41.0123 16.8506 40.5875 22.9328C39.8855 32.974 34.4659 38.5293 27.2771 38.5293H23.6476C22.6613 38.5293 21.9979 39.2605 21.7311 41.242L20.1902 52.7615C20.0884 53.5085 19.7374 53.941 19.2108 53.9999H10.6672C9.86335 53.9999 9.57903 53.3119 9.78964 51.8219L14.9987 14.8927C15.2023 13.4144 15.9254 12.7107 17.3645 12.7107Z" fill="#009EE3"/>
<path fill-rule="evenodd" clip-rule="evenodd" d="M76.4017 12.0266C80.9894 12.0266 85.2227 14.8141 84.6435 21.7612C83.9415 30.0174 79.9926 34.5859 73.7621 34.6056H68.3178C67.5351 34.6056 67.156 35.3211 66.9524 36.7876L65.8994 44.2851C65.7414 45.4174 65.2219 45.9757 64.4567 45.9757H59.3916C58.5842 45.9757 58.3034 45.3977 58.4825 44.1042L62.663 14.0553C62.8701 12.577 63.3651 12.0266 64.2672 12.0266H76.3912H76.4017ZM68.1529 28.1146H72.2773C74.8572 28.0045 76.5702 26.0033 76.7422 22.3941C76.8475 20.1649 75.5031 18.5687 73.3654 18.5805L69.4832 18.6002L68.1529 28.1146ZM98.4138 43.6757C98.8771 43.2039 99.3475 42.9601 99.2808 43.542L99.1158 44.9338C99.0315 45.6611 99.2878 46.0464 99.8915 46.0464H104.392C105.15 46.0464 105.518 45.7044 105.704 44.3912L108.477 24.8985C108.618 23.9196 108.404 23.4399 107.74 23.4399H102.791C102.345 23.4399 102.127 23.7191 102.012 24.4818L101.829 25.6809C101.734 26.306 101.478 26.4161 101.239 25.7871C100.4 23.5618 98.2593 22.5632 95.2722 22.6418C88.3326 22.803 83.6536 28.7043 83.1517 36.2686C82.7656 42.1188 86.5074 46.7148 91.4426 46.7148C95.023 46.7148 96.6236 45.5353 98.4278 43.6875L98.4138 43.6757ZM94.6439 40.6759C91.6567 40.6759 89.5752 38.0064 90.007 34.7353C90.4387 31.4643 93.2328 28.7947 96.2199 28.7947C99.207 28.7947 101.289 31.4643 100.857 34.7353C100.425 38.0064 97.6345 40.6759 94.6439 40.6759ZM117.284 23.377H112.721C111.78 23.377 111.398 24.1633 111.696 25.1305L117.361 43.7111L111.805 52.5531C111.338 53.2923 111.7 53.9646 112.356 53.9646H117.484C117.783 54.0033 118.086 53.9449 118.356 53.7964C118.626 53.648 118.852 53.4157 119.008 53.1272L136.432 25.1344C136.969 24.2734 136.716 23.3692 135.835 23.3692H130.981C130.149 23.3692 129.815 23.7387 129.338 24.5133L122.072 36.3079L118.825 24.4857C118.636 23.7702 118.162 23.377 117.288 23.377H117.284Z" fill="#113984"/>
<path fill-rule="evenodd" clip-rule="evenodd" d="M154.558 12.0267C159.146 12.0267 163.379 14.8142 162.8 21.7612C162.098 30.0175 158.149 34.586 151.919 34.6056H146.478C145.695 34.6056 145.316 35.3212 145.113 36.7876L144.06 44.2851C143.902 45.4174 143.382 45.9757 142.617 45.9757H137.552C136.744 45.9757 136.464 45.3978 136.643 44.1043L140.83 14.0475C141.037 12.5692 141.532 12.0188 142.434 12.0188H154.558V12.0267ZM146.31 28.1146H150.434C153.014 28.0045 154.727 26.0034 154.899 22.3942C155.004 20.165 153.66 18.5688 151.522 18.5806L147.64 18.6002L146.31 28.1146V28.1146ZM176.57 43.6757C177.034 43.204 177.504 42.9602 177.437 43.5421L177.272 44.9338C177.188 45.6612 177.444 46.0465 178.048 46.0465H182.548C183.306 46.0465 183.675 45.7044 183.861 44.3913L186.634 24.8986C186.774 23.9196 186.56 23.44 185.897 23.44H180.955C180.509 23.44 180.291 23.7191 180.175 24.4819L179.993 25.681C179.898 26.3061 179.642 26.4162 179.403 25.7871C178.564 23.5619 176.423 22.5633 173.436 22.6419C166.496 22.8031 161.817 28.7044 161.315 36.2687C160.929 42.1188 164.671 46.7148 169.606 46.7148C173.187 46.7148 174.787 45.5354 176.591 43.6875L176.57 43.6757ZM172.804 40.676C169.817 40.676 167.735 38.0064 168.167 34.7354C168.599 31.4643 171.393 28.7948 174.38 28.7948C177.367 28.7948 179.449 31.4643 179.017 34.7354C178.585 38.0064 175.791 40.676 172.804 40.676ZM193.559 46.0779H188.364C188.274 46.0824 188.184 46.0646 188.1 46.0256C188.017 45.9865 187.942 45.9274 187.882 45.8523C187.821 45.7771 187.776 45.6879 187.749 45.591C187.723 45.4941 187.716 45.3919 187.729 45.2916L192.292 12.9113C192.336 12.6903 192.445 12.4923 192.602 12.3495C192.758 12.2068 192.954 12.1276 193.156 12.125H198.351C198.441 12.1204 198.531 12.1383 198.615 12.1773C198.698 12.2163 198.773 12.2755 198.834 12.3506C198.894 12.4257 198.94 12.5149 198.966 12.6119C198.992 12.7088 198.999 12.811 198.986 12.9113L194.423 45.2916C194.381 45.514 194.272 45.7138 194.115 45.8581C193.959 46.0024 193.762 46.0827 193.559 46.0858V46.0779Z" fill="#009EE3"/>
<path fill-rule="evenodd" clip-rule="evenodd" d="M8.85995 0H22.4722C26.3053 0 30.8544 0.137605 33.8942 3.14525C35.9265 5.15428 36.9936 8.35064 36.7479 11.7947C35.9125 23.436 29.6961 29.9585 21.356 29.9585H14.6446C13.5003 29.9585 12.7457 30.8077 12.4227 33.1037L10.5483 46.471C10.4255 47.336 10.092 47.8471 9.49528 47.91H1.09555C0.165363 47.91 -0.164592 47.1237 0.0776064 45.3859L6.11503 2.53979C6.35723 0.817761 7.20317 0 8.85995 0Z" fill="#113984"/>
<path fill-rule="evenodd" clip-rule="evenodd" d="M12.6191 31.7474L14.9955 14.8927C15.2026 13.4145 15.9257 12.7068 17.3648 12.7068H30.9631C33.2131 12.7068 35.0349 13.0999 36.46 13.8273C35.0945 24.1909 29.1098 29.9467 21.2751 29.9467H14.5743C13.6757 29.9506 13.0158 30.4539 12.6191 31.7474Z" fill="#172C70"/>
</g>
<defs>
<clipPath id="clip0_121_51931">
<rect width="199" height="54" fill="white"/>
</clipPath>
</defs>
</svg>
