<svg width="198" height="47" viewBox="0 0 198 47" fill="none" xmlns="http://www.w3.org/2000/svg">
<path fill-rule="evenodd" clip-rule="evenodd" d="M77.0476 32.5219C77.0696 25.4837 72.4983 22.445 68.9492 20.0839C66.703 18.5907 64.867 17.3696 64.867 15.5808C64.867 14.0561 66.0296 12.4418 68.5039 12.025C71.4454 11.6556 74.4132 12.3097 77.0827 13.919L78.6116 4.68607C76.0079 3.44623 73.2484 2.8052 70.4671 2.79199C61.886 2.79199 55.9218 8.60876 55.9218 16.9184C55.9218 23.0595 60.2496 26.4757 63.5223 28.5068C66.7951 30.5382 68.0674 31.968 68.0301 33.8146C68.0301 36.6769 65.3408 37.9692 62.8314 38.0167C59.7363 38.067 56.6829 37.1146 53.9586 35.2468L52.3946 44.4797C55.4765 46.0072 58.7602 46.775 62.068 46.7407C71.1931 46.7407 77.1946 41.0161 77.2297 32.1525L77.0476 32.5219ZM53.4497 3.53328L46.1781 46.2342H37.4523L44.7238 3.53328H53.4497ZM90.0289 31.2292L94.609 15.2117L97.2654 31.2292H90.0289ZM107.81 46.3738H99.7375L98.6824 40.0032H87.7389L85.9556 46.3738H76.7932L89.8468 6.80964C90.4479 4.92612 91.8803 3.6889 93.4838 3.67045H100.755L107.81 46.3738ZM27.0879 46.0943L41.1966 3.39346H31.7425L22.6898 32.4295L19.053 7.73293C18.7305 5.22156 17.0196 3.3829 15.0169 3.39346H0.219366L0 4.63857C2.96784 5.37721 5.8523 6.58542 8.58105 8.23938C9.74362 8.93318 10.5311 10.3551 10.6539 11.98L17.5987 46.0943H27.0879Z" fill="#212B36"/>
<path d="M175.694 4.70862H159.585V40.8101H175.694V4.70862Z" fill="#F26122"/>
<path d="M161.331 22.7593C161.3 15.7957 163.856 9.20117 168.258 4.86977C160.724 -2.46804 149.901 -1.40247 143.397 7.31718C136.893 16.0372 136.893 29.4826 143.397 38.2026C149.901 46.9215 160.724 47.9881 168.258 40.6492C163.856 36.3186 161.3 29.7241 161.331 22.7593Z" fill="#EA1D25"/>
<path d="M198 22.7592C197.994 31.4728 193.977 39.4197 187.649 43.2282C181.323 47.0367 173.795 46.0405 168.258 40.6622C176.232 32.8869 177.611 18.5838 171.345 8.70042C170.445 7.26899 169.41 5.9789 168.258 4.85808C173.795 -0.521021 181.323 -1.5176 187.649 2.29124C193.977 6.1001 197.994 14.047 198 22.7592Z" fill="#F69E1E"/>
</svg>
